:SAMPLES-PER-SECOND 30
:FULLY-SPECIFIED
:DEGREES
277
root  35.12561227 36.5272582 -14.59195295 9.862138748 6.447855949 3.416612387
lowerback  -8.671544075 1.103708863 1.060896754
upperback  -3.754220009 1.076930046 -3.426510096
thorax  1.059910059 0.3480719924 -4.045629978
lowerneck  -17.06979942 0.7139890194 1.808349967
upperneck  14.94369984 -0.5435889363 4.706980228
head  7.425409794 0.2234510183 1.180960059
lclavicle  0 -4.497500157e-015 -2.743230041e-014
lhumerus  -43.48550034 26.60210037 69.70059967
lradius  -0.2349681109 -6.507048965e-006 27.96910095
lwrist  4.824992743e-007 -3.790274832e-007 -29.75629997
lhand  -4.419582373e-031 -36.96789932 -10.30860043
lfingers  90 7.125020027 -90
lthumb  94.76963654 -25.14894207 101.1080932
rclavicle  0 -4.497500157e-015 -2.743230041e-014
rhumerus  -20.12409973 0.03103789873 -65.79090118
rradius  -5.16745672e-007 2.214343908e-008 110.262001
rwrist  1.129822067e-006 0.001802438172 179.322052
rhand  -0 2.915549994 -4.713069916
rfingers  -90 -7.125020027 -90
rthumb  -84.02499359 -10.90612461 -61.04919941
rfemur  -11.52786064 12.31413078 14.11610985
rtibia  -1.121226668 1.654465795 20.69276237
rfoot  -0.7354079485 -16.78115845 -41.58073425
rtoes  3.802006318 19.64983806 -101.1789579
lfemur  -9.651130676 -20.90431976 -19.00210762
ltibia  2.934964895 1.493246078 14.44993114
lfoot  0.4732714891 -28.2382679 32.59109879
ltoes  -8.592369644 -18.12884948 -115.9016117
278
root  35.12461805 36.52542895 -14.59628578 9.81525135 6.334960461 3.38105917
lowerback  -8.67318058 1.088089943 1.071340442
upperback  -3.732409954 1.058290005 -3.418600082
thorax  1.080819964 0.3401229978 -4.046549797
lowerneck  -17.13899994 0.7256669998 1.722640038
upperneck  14.99610043 -0.5218179822 4.762469769
head  7.454380035 0.2361330241 1.216560006
lclavicle  0 -4.497500157e-015 -2.743230041e-014
lhumerus  -43.44449997 26.60700035 69.76779938
lradius  -0.2316944599 -6.507048965e-006 27.9632988
lwrist  4.824992743e-007 -3.790274832e-007 -29.78530121
lhand  -0 -36.95249939 -10.28479958
lfingers  90 7.125020027 -90
lthumb  94.75750615 -25.12612947 101.0895882
rclavicle  0 -4.497500157e-015 -2.743230041e-014
rhumerus  -21.58160019 -0.5432326198 -66.32679749
rradius  -5.16745672e-007 2.214343908e-008 110.223999
rwrist  1.129822067e-006 0.001802438172 179.4429474
rhand  -0 2.867269993 -4.93156004
rfingers  -90 -7.125020027 -90
rthumb  -84.14507185 -10.71297455 -61.11685804
rfemur  -11.48762226 12.35281563 14.12666988
rtibia  -1.089424849 1.653737307 20.65422821
rfoot  -0.7173118591 -16.84731483 -41.53519058
rtoes  3.808418973 19.64864352 -101.1980284
lfemur  -9.610139847 -20.80731773 -18.97636223
ltibia  2.900195599 1.50013268 14.46037865
lfoot  0.4586719275 -28.26859856 32.61925507
ltoes  -8.616026495 -18.117913 -115.977663
279
root  35.12345261 36.52432059 -14.59878486 9.767662048 6.237024307 3.363668203
lowerback  -8.673569679 1.045390129 1.070359588
upperback  -3.712690115 1.003569961 -3.399600029
thorax  1.096770048 0.314188987 -4.031360149
lowerneck  -17.21980095 0.7876160145 1.729069948
upperneck  15.08230019 -0.4496079683 4.773109913
head  7.495510101 0.2744759917 1.228459835
lclavicle  0 -4.497500157e-015 -2.743230041e-014
lhumerus  -43.39450073 26.58320045 69.81819916
lradius  -0.2283940613 -6.507048965e-006 27.94759941
lwrist  4.824992743e-007 -3.790274832e-007 -29.71319962
lhand  -4.419704412e-031 -36.97000122 -10.2578001
lfingers  90 7.125020027 -90
lthumb  94.75980908 -25.09891884 101.1058154
rclavicle  0 -4.497500157e-015 -2.743230041e-014
rhumerus  -22.88949966 -1.097299337 -66.86519623
rradius  -5.16745672e-007 2.214343908e-008 110.0270004
rwrist  1.129822067e-006 0.001802438172 179.4550018
rhand  -8.839731404e-032 2.975660086 -4.222549915
rfingers  -90 -7.125020027 -90
rthumb  -83.7666517 -11.3374026 -60.94336324
rfemur  -11.45432854 12.42112255 14.12889671
rtibia  -1.072777629 1.650829792 20.64292145
rfoot  -0.7097246051 -16.86970329 -41.51902008
rtoes  3.814154764 19.64757329 -101.2150869
lfemur  -9.527025223 -20.72471809 -18.98927689
ltibia  2.903406858 1.506060243 14.41357327
lfoot  0.4477606118 -28.27317429 32.65029526
ltoes  -8.676434174 -18.08981583 -116.1720619
280
root  35.12248843 36.525468 -14.60126441 9.7096138 6.145587444 3.342521429
lowerback  -8.666970253 0.9988490343 1.059279919
upperback  -3.71043992 0.9429659843 -3.363189936
thorax  1.090010047 0.2846620083 -3.992889881
lowerneck  -17.1310997 0.8290860057 1.802559972
upperneck  15.00599957 -0.3739160001 4.632969856
head  7.452980042 0.3005520105 1.177809954
lclavicle  0 -4.497500157e-015 -2.743230041e-014
lhumerus  -43.41490173 26.53479958 69.88249969
lradius  -0.2250668705 -6.507048965e-006 27.99259949
lwrist  4.824992743e-007 -3.790274832e-007 -29.6154995
lhand  -0 -36.91799927 -10.26879978
lfingers  90 7.125020027 -90
lthumb  94.73821952 -25.11161142 101.0513629
rclavicle  0 -4.497500157e-015 -2.743230041e-014
rhumerus  -24.14710045 -1.681800723 -67.41840363
rradius  -5.16745672e-007 2.214343908e-008 109.7630005
rwrist  1.129822067e-006 0.001802438172 179.6327515
rhand  -8.844072051e-032 3.474809885 -4.410649776
rfingers  -90 -7.125020027 -90
rthumb  -83.72580932 -11.19178599 -60.47045534
rfemur  -11.39293003 12.498312 14.14148617
rtibia  -1.054114103 1.649481297 20.60146904
rfoot  -0.6869042516 -16.88525581 -41.51019669
rtoes  3.83107388 19.6444066 -101.2654103
lfemur  -9.46251297 -20.65328979 -18.99217796
ltibia  2.88629365 1.50105679 14.41634274
lfoot  0.441968888 -28.28439522 32.67835236
ltoes  -8.657893709 -18.09846565 -116.1123655
281
root  35.1231192 36.52671754 -14.60510464 9.670973778 6.046796799 3.310034275
lowerback  -8.589520454 0.938575089 0.9881507754
upperback  -3.724859953 0.8676260114 -3.309360027
thorax  1.024790049 0.2474859953 -3.903830051
lowerneck  -17.11870003 0.8771119714 1.816390038
upperneck  15.02210045 -0.2996989787 4.573959827
head  7.454539776 0.3320049942 1.16463995
lclavicle  0 -4.497500157e-015 -2.743230041e-014
lhumerus  -43.4715004 26.48920059 69.93740082
lradius  -0.2217217833 -6.507048965e-006 28.03630066
lwrist  4.824992743e-007 -3.790274832e-007 -29.52460098
lhand  -0 -36.82770157 -10.24120045
lfingers  90 7.125020027 -90
lthumb  94.69081669 -25.08746133 100.9526103
rclavicle  0 -4.497500157e-015 -2.743230041e-014
rhumerus  -25.47649956 -2.324599743 -67.83899689
rradius  -5.16745672e-007 2.214343908e-008 109.6060028
rwrist  1.129822067e-006 0.001802438172 179.5469971
rhand  -0 3.112400055 -4.85612011
rfingers  -90 -7.125020027 -90
rthumb  -84.0442551 -10.78909429 -60.869085
rfemur  -11.35110855 12.57335567 14.15227413
rtibia  -1.032335877 1.652496696 20.54374123
rfoot  -0.6514927149 -16.88425255 -41.48619461
rtoes  3.844108393 19.641957 -101.3041849
lfemur  -9.482061386 -20.64928246 -18.94826317
ltibia  2.816796064 1.465415835 14.50725842
lfoot  0.4308376312 -28.25718307 32.73728943
ltoes  -8.585376663 -18.13207512 -115.8791394
